<?xml version="1.0" encoding="utf-8"?>
<!-- Generator: Adobe Illustrator 16.0.0, SVG Export Plug-In . SVG Version: 6.00 Build 0)  -->
<!DOCTYPE svg PUBLIC "-//W3C//DTD SVG 1.1//EN" "http://www.w3.org/Graphics/SVG/1.1/DTD/svg11.dtd">
<svg version="1.1" id="Layer_1" xmlns="http://www.w3.org/2000/svg" xmlns:xlink="http://www.w3.org/1999/xlink" x="0px" y="0px"
	 width="253px" height="34px" viewBox="0 0 253 34" enable-background="new 0 0 253 34" xml:space="preserve">
<g>
	<defs>
		<rect id="SVGID_1_" y="0.731" width="253" height="32.537"/>
	</defs>
	<clipPath id="SVGID_2_">
		<use xlink:href="#SVGID_1_"  overflow="visible"/>
	</clipPath>
	<path clip-path="url(#SVGID_2_)" fill-rule="evenodd" clip-rule="evenodd" fill="#0072B3" d="M17.864,19.236
		c0.641-0.797,1.053-1.704,1.238-2.722c0.088-0.459,0.131-0.863,0.131-1.208c0-0.656-0.133-1.223-0.398-1.698
		c-0.264-0.478-0.688-0.875-1.276-1.194c-0.587-0.319-1.345-0.559-2.273-0.715c-0.927-0.154-2.065-0.232-3.409-0.232H3.193L0,29.197
		h6.027l1.099-6.182h1.839c1.072,0,1.809,0.129,2.21,0.381c0.398,0.258,0.6,0.695,0.6,1.319c0,0.378-0.052,0.835-0.154,1.379
		c-0.101,0.541-0.175,1.032-0.216,1.465c-0.043,0.438-0.065,0.792-0.065,1.073c0,0.213,0.018,0.4,0.052,0.564h6.104l0.076-0.539
		c-0.305,0-0.458-0.199-0.458-0.592c0-0.23,0.033-0.551,0.102-0.963c0.069-0.407,0.163-0.927,0.281-1.553
		c0.12-0.672,0.18-1.26,0.18-1.771c0-0.491-0.06-0.893-0.18-1.205c-0.118-0.313-0.284-0.575-0.496-0.79
		c-0.213-0.213-0.469-0.389-0.769-0.529c-0.296-0.139-0.634-0.274-1.007-0.407C16.346,20.569,17.227,20.032,17.864,19.236
		 M13.358,17.45c-0.101,0.625-0.417,1.059-0.946,1.305c-0.529,0.247-1.259,0.37-2.196,0.37H7.841l0.612-3.521h2.809
		c0.631,0,1.143,0.118,1.534,0.355c0.392,0.24,0.586,0.613,0.586,1.12C13.382,17.247,13.375,17.368,13.358,17.45 M41.485,19.864
		c0-1.28-0.349-2.26-1.048-2.932c-0.697-0.672-1.796-1.009-3.293-1.009c-1.022,0-1.915,0.201-2.683,0.603
		c-0.765,0.405-1.524,0.998-2.272,1.785l0.358-2.019h-4.854l-2.299,12.904h5.312l1.176-6.575c0.133-0.838,0.391-1.49,0.765-1.959
		c0.373-0.468,0.972-0.702,1.788-0.702c0.578,0,0.975,0.147,1.187,0.446c0.213,0.293,0.322,0.663,0.322,1.108
		c0,0.279-0.029,0.565-0.078,0.86l-1.227,6.821h5.313l1.38-7.732C41.434,20.905,41.485,20.373,41.485,19.864 M52.893,15.979
		l-0.281,1.687c-0.375-0.618-0.882-1.119-1.522-1.494c-0.636-0.372-1.364-0.561-2.184-0.561c-1.107,0-2.071,0.192-2.897,0.577
		c-0.827,0.388-1.533,0.887-2.12,1.503c-0.587,0.616-1.058,1.319-1.405,2.106c-0.35,0.789-0.591,1.575-0.728,2.365
		c-0.036,0.229-0.064,0.451-0.088,0.665c-0.025,0.213-0.039,0.427-0.039,0.638c0,0.677,0.102,1.307,0.305,1.897
		c0.205,0.592,0.513,1.102,0.92,1.528c0.409,0.427,0.916,0.763,1.519,1.009c0.604,0.244,1.309,0.369,2.108,0.369
		c0.971,0,1.784-0.14,2.439-0.419c0.657-0.279,1.204-0.61,1.647-0.985l-0.204,1.058c-0.172,0.924-0.453,1.571-0.843,1.948
		c-0.394,0.377-0.972,0.565-1.737,0.565c-0.546,0-0.913-0.106-1.099-0.32c-0.152-0.148-0.23-0.312-0.23-0.492V29.55h-5.338v0.17
		c0,0.462,0.116,0.905,0.346,1.33c0.229,0.431,0.59,0.807,1.084,1.136c0.494,0.327,1.142,0.589,1.941,0.787
		c0.802,0.197,1.78,0.296,2.938,0.296c1.651,0,2.98-0.178,3.986-0.528c1.004-0.355,1.794-0.843,2.374-1.468
		c0.579-0.624,1-1.354,1.265-2.192c0.262-0.837,0.479-1.741,0.652-2.707l1.864-10.395H52.893z M51.437,22.051
		c-0.067,0.347-0.172,0.681-0.307,1.001c-0.137,0.323-0.312,0.606-0.524,0.855c-0.213,0.246-0.468,0.445-0.766,0.591
		c-0.299,0.148-0.633,0.226-1.008,0.226h-0.127c-0.598-0.017-1.027-0.21-1.292-0.582c-0.263-0.373-0.394-0.812-0.394-1.326
		c0-0.097,0.003-0.196,0.012-0.297c0.009-0.096,0.022-0.204,0.04-0.321c0.065-0.41,0.166-0.798,0.292-1.161
		c0.127-0.363,0.293-0.677,0.498-0.939c0.205-0.264,0.453-0.472,0.742-0.62s0.63-0.223,1.021-0.223h0.052
		c0.681,0,1.157,0.195,1.429,0.583c0.272,0.386,0.412,0.853,0.412,1.396C51.514,21.514,51.486,21.787,51.437,22.051 M18.49,29.197
		h5.288l1.553-10.474h-3.849L18.49,29.197z"/>
	<path clip-path="url(#SVGID_2_)" fill="#FF8900" d="M67.516,11.319c-1.207,0-2.378,0.204-3.514,0.614
		c-1.134,0.413-2.161,0.999-3.078,1.761c-0.918,0.761-1.698,1.683-2.344,2.77c-0.645,1.09-1.086,2.309-1.328,3.657
		c-0.066,0.357-0.114,0.702-0.144,1.035c-0.034,0.334-0.048,0.658-0.048,0.966c0,1.075,0.171,2.03,0.518,2.878
		c0.345,0.845,0.853,1.563,1.521,2.153c0.668,0.589,1.484,1.039,2.451,1.351c0.967,0.312,2.077,0.465,3.333,0.465
		c1.144,0,2.226-0.157,3.249-0.476c1.022-0.318,1.947-0.776,2.777-1.374c0.829-0.596,1.547-1.323,2.148-2.176
		c0.605-0.855,1.066-1.826,1.39-2.913h-5.481c-0.257,0.811-0.664,1.483-1.219,2.026c-0.557,0.544-1.293,0.814-2.211,0.814
		c-0.546,0-0.998-0.071-1.353-0.222c-0.353-0.146-0.64-0.349-0.855-0.605c-0.218-0.256-0.373-0.556-0.459-0.896
		c-0.089-0.341-0.132-0.713-0.132-1.118c0-0.265,0.014-0.54,0.047-0.828c0.032-0.284,0.08-0.584,0.144-0.897
		c0.289-1.626,0.79-2.849,1.499-3.666c0.706-0.815,1.568-1.222,2.584-1.222c0.836,0,1.484,0.21,1.942,0.629
		c0.459,0.418,0.69,1.016,0.69,1.794c0,0.061-0.005,0.117-0.014,0.159c-0.008,0.05-0.013,0.104-0.013,0.166h5.41
		c0.016-0.125,0.024-0.24,0.024-0.351v-0.349c0-1.954-0.625-3.47-1.87-4.541C71.933,11.854,70.045,11.319,67.516,11.319
		 M83.981,25.56c-0.39,0.188-0.801,0.281-1.226,0.281c-0.629,0-1.157-0.182-1.584-0.553c-0.425-0.368-0.637-0.864-0.637-1.489
		c0-0.083,0.003-0.166,0.012-0.248c0.008-0.081,0.021-0.163,0.037-0.244h10.141c0.135-0.707,0.204-1.339,0.204-1.897
		c0-0.902-0.145-1.733-0.435-2.486c-0.288-0.756-0.715-1.396-1.276-1.923c-0.561-0.525-1.258-0.936-2.082-1.23
		c-0.827-0.296-1.777-0.442-2.85-0.442c-1.072,0-2.097,0.162-3.077,0.49c-0.979,0.33-1.864,0.793-2.656,1.394
		c-0.792,0.599-1.46,1.33-2.003,2.191c-0.546,0.86-0.911,1.819-1.099,2.868c-0.035,0.231-0.066,0.454-0.089,0.676
		c-0.025,0.222-0.039,0.441-0.039,0.655c0,0.87,0.162,1.636,0.486,2.301c0.322,0.667,0.773,1.23,1.354,1.688
		c0.577,0.46,1.268,0.807,2.068,1.034c0.8,0.231,1.677,0.345,2.63,0.345c0.785,0,1.578-0.067,2.388-0.207
		c0.808-0.14,1.579-0.379,2.311-0.713c0.733-0.34,1.399-0.778,2.007-1.318c0.604-0.545,1.092-1.217,1.467-2.021H84.95
		C84.695,25.09,84.373,25.37,83.981,25.56 M81.989,19.056c0.495-0.4,1.141-0.602,1.94-0.602c0.563,0,1.032,0.182,1.407,0.541
		c0.372,0.361,0.561,0.805,0.561,1.331c0,0.163-0.009,0.285-0.025,0.369h-4.827C81.18,20.005,81.496,19.461,81.989,19.056
		 M102.098,15.695c-1.02,0-1.914,0.201-2.68,0.603c-0.766,0.405-1.524,0.998-2.274,1.786l0.358-2.02H92.65l-2.299,12.904h5.312
		l1.174-6.575c0.137-0.837,0.393-1.49,0.765-1.959c0.376-0.468,0.975-0.7,1.791-0.7c0.577,0,0.973,0.147,1.186,0.444
		c0.213,0.294,0.32,0.664,0.32,1.108c0,0.278-0.025,0.565-0.077,0.86l-1.227,6.821h5.314l1.377-7.732
		c0.102-0.56,0.155-1.092,0.155-1.601c0-1.28-0.349-2.26-1.048-2.932C104.695,16.031,103.598,15.695,102.098,15.695 M113.377,25.03
		c-0.203-0.134-0.307-0.356-0.307-0.67c0-0.098,0.008-0.209,0.026-0.334c0.017-0.123,0.042-0.254,0.078-0.402l0.84-4.699h2.554
		l0.513-2.958h-2.553l0.74-4.016h-5.234l-0.742,4.016h-1.967l-0.511,2.958h1.891l-0.972,5.39c-0.086,0.442-0.148,0.852-0.191,1.22
		c-0.042,0.371-0.065,0.704-0.065,0.999c0,0.475,0.069,0.872,0.204,1.181c0.138,0.311,0.366,0.564,0.69,0.751
		c0.325,0.189,0.758,0.322,1.305,0.396c0.543,0.071,1.216,0.108,2.017,0.108c0.425,0,0.89-0.005,1.391-0.022
		c0.502-0.016,1.052-0.043,1.649-0.075l0.636-3.646h-0.841C113.966,25.226,113.583,25.162,113.377,25.03 M126.465,20.793
		c0.178,0.032,0.353,0.066,0.523,0.1l0.947-5.123c-0.121-0.015-0.237-0.034-0.346-0.05c-0.113-0.016-0.227-0.024-0.346-0.024
		c-2.029,0-3.576,0.993-4.648,2.98h-0.053l0.462-2.611h-4.83l-2.298,12.904h5.313l0.791-4.457c0.256-1.394,0.703-2.371,1.341-2.931
		c0.641-0.558,1.502-0.837,2.592-0.837C126.102,20.744,126.287,20.763,126.465,20.793 M141.194,17.296
		c-0.17-0.41-0.478-0.764-0.92-1.058c-0.443-0.296-1.052-0.522-1.829-0.677c-0.77-0.156-1.765-0.234-2.973-0.234
		c-1.326,0-2.471,0.096-3.423,0.295c-0.954,0.195-1.757,0.479-2.414,0.85c-0.652,0.366-1.161,0.821-1.519,1.354
		c-0.359,0.533-0.596,1.144-0.716,1.836h5.107c0.07-0.28,0.185-0.501,0.346-0.667c0.163-0.162,0.335-0.29,0.523-0.382
		c0.188-0.09,0.388-0.147,0.601-0.173c0.213-0.023,0.412-0.037,0.6-0.037c0.118,0,0.272,0.014,0.46,0.037
		c0.189,0.025,0.361,0.065,0.522,0.122c0.161,0.059,0.303,0.146,0.423,0.262c0.117,0.114,0.179,0.269,0.179,0.468
		c0,0.031-0.005,0.061-0.012,0.085c-0.01,0.025-0.014,0.054-0.014,0.086c-0.067,0.409-0.355,0.692-0.857,0.851
		c-0.497,0.157-1.114,0.276-1.839,0.368c-0.722,0.091-1.506,0.188-2.347,0.295c-0.844,0.108-1.647,0.3-2.401,0.582
		c-0.757,0.278-1.423,0.691-1.994,1.24c-0.569,0.553-0.94,1.31-1.109,2.28c-0.053,0.278-0.077,0.534-0.077,0.762
		c0,0.543,0.11,1.009,0.331,1.393c0.222,0.389,0.518,0.712,0.895,0.973c0.376,0.266,0.819,0.458,1.33,0.581
		c0.508,0.121,1.046,0.182,1.606,0.182c1.006,0,1.931-0.12,2.771-0.356c0.846-0.237,1.702-0.703,2.568-1.39l0.031,1.775h5.492
		l0.02-0.644c-0.187-0.181-0.315-0.342-0.385-0.481c-0.067-0.139-0.101-0.298-0.101-0.481c0-0.179,0.026-0.408,0.075-0.687
		l1.074-6.034c0.067-0.362,0.122-0.708,0.166-1.037c0.043-0.325,0.063-0.647,0.063-0.956
		C141.449,18.167,141.364,17.706,141.194,17.296 M135.243,24.13c-0.139,0.386-0.321,0.723-0.562,1.009
		c-0.236,0.291-0.531,0.516-0.879,0.68c-0.35,0.165-0.757,0.243-1.214,0.243c-0.495,0-0.866-0.082-1.111-0.256
		c-0.25-0.172-0.371-0.396-0.371-0.678V24.98c0.067-0.413,0.249-0.715,0.549-0.91c0.297-0.198,0.657-0.349,1.073-0.457
		c0.416-0.106,0.868-0.206,1.354-0.295c0.484-0.092,0.966-0.236,1.442-0.433C135.473,23.33,135.38,23.744,135.243,24.13
		 M141.449,28.969h5.315l3.19-17.73h-5.313L141.449,28.969z M27.983,13.274c-0.04-0.098-0.892-1.605-3.323-2.022
		c-0.597-0.104-1.133-0.113-1.604-0.064c-1.529,0.154-2.331,0.901-2.391,0.96c-0.246,0.234-0.246,0.618,0,0.854
		c0.244,0.237,0.642,0.238,0.885,0.002c0,0,0.009-0.011,0.07-0.054c0.186-0.14,0.709-0.473,1.566-0.559
		c0.356-0.036,0.77-0.031,1.251,0.053c0.978,0.172,1.583,0.538,1.954,0.85c0.184,0.158,0.31,0.3,0.386,0.399
		c0.037,0.049,0.062,0.089,0.075,0.109c0.012,0.018,0.011,0.018,0.012,0.018c0.12,0.233,0.375,0.354,0.625,0.33
		c0.075-0.008,0.147-0.028,0.217-0.061C28.017,13.937,28.142,13.572,27.983,13.274z M24.15,13.463L24.15,13.463
		c-0.365-0.062-0.7-0.069-0.992-0.04c-0.957,0.098-1.463,0.565-1.514,0.615c-0.205,0.198-0.205,0.518,0,0.713
		c0.205,0.199,0.537,0.197,0.741,0c0,0-0.001-0.001,0.026-0.022c0.096-0.07,0.379-0.254,0.856-0.303
		c0.196-0.019,0.427-0.017,0.7,0.03c0.554,0.1,0.89,0.304,1.088,0.473c0.104,0.086,0.168,0.164,0.209,0.215
		c0.038,0.051,0.033,0.057,0.038,0.055c0.099,0.192,0.311,0.296,0.521,0.274c0.062-0.005,0.123-0.023,0.182-0.052
		c0.258-0.124,0.362-0.429,0.233-0.676C26.205,14.663,25.658,13.723,24.15,13.463 M23.503,15.304
		c-0.751-0.001-1.362,0.499-1.363,1.122c-0.003,0.616,0.601,1.124,1.354,1.127c0.75,0.003,1.358-0.496,1.364-1.117
		C24.861,15.817,24.254,15.309,23.503,15.304 M156.954,13.198c-0.158-0.35-0.373-0.651-0.642-0.907
		c-0.272-0.255-0.587-0.456-0.947-0.603c-0.361-0.145-0.746-0.218-1.155-0.218c-0.408,0-0.793,0.073-1.158,0.218
		c-0.362,0.146-0.681,0.348-0.954,0.603c-0.273,0.256-0.489,0.558-0.647,0.907c-0.16,0.347-0.239,0.722-0.239,1.127
		c0,0.415,0.079,0.796,0.239,1.146c0.158,0.351,0.374,0.654,0.647,0.913c0.273,0.258,0.592,0.458,0.954,0.601
		c0.365,0.145,0.75,0.217,1.158,0.217c0.409,0,0.794-0.072,1.155-0.217c0.36-0.143,0.675-0.343,0.947-0.601
		c0.269-0.259,0.483-0.562,0.642-0.913c0.16-0.351,0.239-0.731,0.239-1.146C157.193,13.92,157.114,13.545,156.954,13.198
		 M156.465,15.303c-0.125,0.298-0.296,0.559-0.518,0.778c-0.218,0.221-0.478,0.393-0.774,0.518
		c-0.296,0.126-0.618,0.189-0.963,0.189c-0.35,0-0.675-0.063-0.974-0.189c-0.3-0.125-0.561-0.297-0.78-0.518
		c-0.222-0.22-0.394-0.48-0.516-0.778c-0.127-0.3-0.189-0.626-0.189-0.978c0-0.344,0.062-0.663,0.189-0.96
		c0.122-0.297,0.294-0.553,0.516-0.771c0.22-0.218,0.48-0.389,0.78-0.515c0.299-0.125,0.624-0.188,0.974-0.188
		c0.345,0,0.667,0.062,0.963,0.188c0.297,0.126,0.557,0.297,0.774,0.515c0.222,0.218,0.393,0.474,0.518,0.771
		c0.126,0.297,0.188,0.616,0.188,0.96C156.653,14.677,156.591,15.003,156.465,15.303 M155.348,14.283
		c0.175-0.142,0.263-0.363,0.263-0.665c0-0.321-0.1-0.562-0.299-0.721c-0.199-0.158-0.505-0.238-0.918-0.238h-1.346v3.354h0.542
		V14.57h0.572l0.947,1.442h0.581l-0.995-1.482C154.956,14.506,155.173,14.424,155.348,14.283 M154.154,14.148h-0.564v-1.066h0.715
		c0.092,0,0.183,0.006,0.277,0.02c0.091,0.012,0.173,0.036,0.245,0.072c0.07,0.035,0.131,0.087,0.176,0.153
		c0.042,0.066,0.067,0.155,0.067,0.268c0,0.133-0.026,0.238-0.078,0.312c-0.048,0.074-0.115,0.129-0.201,0.165
		c-0.086,0.035-0.183,0.058-0.29,0.065C154.392,14.144,154.275,14.148,154.154,14.148"/>
	<path clip-path="url(#SVGID_2_)" fill="#585858" d="M169.83,20.96c-0.046,0.805-0.165,1.561-0.361,2.264s-0.454,1.347-0.777,1.931
		s-0.7,1.104-1.137,1.562s-0.919,0.846-1.444,1.161s-1.089,0.558-1.689,0.722c-0.602,0.163-1.229,0.245-1.882,0.245H158
		l2.437-13.691h4.538c0.794,0,1.504,0.139,2.131,0.412c0.626,0.274,1.15,0.663,1.569,1.167c0.421,0.502,0.729,1.111,0.93,1.827
		C169.806,19.276,169.881,20.076,169.83,20.96 M168.848,20.979c0.045-0.78-0.016-1.483-0.18-2.108
		c-0.165-0.626-0.42-1.154-0.768-1.586c-0.349-0.433-0.78-0.765-1.297-0.997c-0.518-0.231-1.107-0.349-1.768-0.349h-3.585
		l-2.168,12.125h3.585c0.839,0,1.621-0.16,2.344-0.479c0.724-0.32,1.36-0.782,1.91-1.39c0.551-0.605,0.993-1.348,1.328-2.224
		C168.585,23.092,168.785,22.096,168.848,20.979"/>
	<polygon clip-path="url(#SVGID_2_)" fill="#585858" points="179.642,15.948 173.148,15.948 172.155,21.521 177.561,21.521 
		177.412,22.295 172.016,22.295 170.992,28.052 177.514,28.052 177.364,28.844 169.899,28.844 172.335,15.154 179.792,15.154 	"/>
	<path clip-path="url(#SVGID_2_)" fill="#585858" d="M179.569,15.153h0.754c0.089,0,0.156,0.025,0.202,0.073
		c0.044,0.049,0.074,0.108,0.089,0.18l2.155,11.427c0.024,0.137,0.047,0.28,0.071,0.436c0.021,0.153,0.039,0.315,0.048,0.483
		c0.066-0.168,0.135-0.33,0.204-0.483c0.069-0.155,0.142-0.299,0.221-0.436l6.205-11.427c0.036-0.072,0.089-0.131,0.161-0.18
		c0.067-0.047,0.147-0.073,0.236-0.073h0.743l-7.547,13.691h-0.849L179.569,15.153z"/>
	<polygon clip-path="url(#SVGID_2_)" fill="#585858" points="198.499,15.948 192.008,15.948 191.014,21.521 196.419,21.521 
		196.271,22.295 190.874,22.295 189.851,28.052 196.372,28.052 196.223,28.844 188.758,28.844 191.193,15.154 198.65,15.154 	"/>
	<polygon clip-path="url(#SVGID_2_)" fill="#585858" points="198.775,28.023 204.648,28.023 204.497,28.845 197.69,28.845 
		200.127,15.153 201.069,15.153 	"/>
	<path clip-path="url(#SVGID_2_)" fill="#585858" d="M216.902,20.948c-0.067,1.209-0.304,2.305-0.707,3.292
		c-0.401,0.986-0.932,1.832-1.588,2.534c-0.657,0.704-1.415,1.249-2.275,1.636c-0.861,0.388-1.782,0.581-2.761,0.581
		c-0.789,0-1.491-0.144-2.11-0.431s-1.138-0.692-1.557-1.215c-0.419-0.523-0.729-1.148-0.928-1.877
		c-0.2-0.729-0.276-1.535-0.228-2.419c0.07-1.199,0.308-2.296,0.713-3.285c0.405-0.99,0.937-1.839,1.588-2.545
		c0.654-0.706,1.411-1.252,2.269-1.639c0.856-0.386,1.772-0.58,2.745-0.58c0.796,0,1.503,0.143,2.125,0.43
		c0.623,0.287,1.143,0.693,1.562,1.213c0.419,0.523,0.727,1.151,0.926,1.882C216.879,19.258,216.951,20.066,216.902,20.948
		 M215.921,20.97c0.043-0.794-0.016-1.508-0.18-2.144s-0.421-1.177-0.77-1.625c-0.352-0.448-0.784-0.792-1.301-1.036
		c-0.517-0.241-1.104-0.363-1.757-0.363c-0.827,0-1.604,0.168-2.327,0.504c-0.725,0.335-1.362,0.815-1.919,1.441
		c-0.552,0.625-1.002,1.384-1.343,2.273c-0.342,0.89-0.546,1.892-0.61,3c-0.045,0.793,0.017,1.508,0.184,2.144
		c0.168,0.637,0.427,1.176,0.774,1.619c0.352,0.447,0.783,0.789,1.297,1.032c0.514,0.241,1.098,0.362,1.753,0.362
		c0.841,0,1.621-0.165,2.345-0.498c0.725-0.332,1.361-0.812,1.913-1.437c0.55-0.627,0.995-1.383,1.335-2.269
		C215.654,23.086,215.855,22.086,215.921,20.97"/>
	<path clip-path="url(#SVGID_2_)" fill="#585858" d="M219.142,23.32l-0.98,5.524h-0.943l2.425-13.691h3.242
		c1.322,0,2.297,0.301,2.924,0.906c0.627,0.603,0.909,1.45,0.848,2.539c-0.04,0.697-0.192,1.335-0.463,1.912
		c-0.267,0.577-0.629,1.074-1.084,1.49c-0.458,0.416-0.995,0.74-1.618,0.973c-0.623,0.231-1.31,0.348-2.061,0.348H219.142z
		 M220.459,15.918l-1.178,6.629h2.288c0.598,0,1.143-0.098,1.634-0.291c0.488-0.193,0.916-0.461,1.275-0.803
		s0.645-0.749,0.854-1.219c0.213-0.472,0.334-0.984,0.366-1.54c0.049-0.877-0.171-1.559-0.662-2.045
		c-0.49-0.487-1.253-0.731-2.29-0.731H220.459z"/>
	<polygon clip-path="url(#SVGID_2_)" fill="#585858" points="235.703,15.948 229.209,15.948 228.215,21.521 233.621,21.521 
		233.473,22.295 228.077,22.295 227.054,28.052 233.574,28.052 233.426,28.844 225.96,28.844 228.396,15.154 235.853,15.154 	"/>
	<path clip-path="url(#SVGID_2_)" fill="#585858" d="M237.2,22.644l-1.105,6.201h-0.943l2.426-13.691h3.203
		c1.303,0,2.265,0.264,2.878,0.79c0.616,0.525,0.896,1.289,0.839,2.289c-0.034,0.594-0.158,1.136-0.378,1.63
		c-0.22,0.493-0.515,0.926-0.886,1.297c-0.369,0.37-0.809,0.673-1.313,0.904c-0.506,0.232-1.06,0.387-1.663,0.464
		c0.13,0.097,0.233,0.224,0.314,0.379l3.179,5.939h-0.81c-0.191,0-0.33-0.08-0.415-0.242l-2.936-5.573
		c-0.079-0.142-0.17-0.242-0.271-0.3c-0.104-0.058-0.271-0.086-0.508-0.086H237.2z M238.403,15.918l-1.077,6.01h2.127
		c0.604,0,1.15-0.084,1.641-0.254c0.488-0.166,0.91-0.405,1.265-0.714c0.355-0.311,0.634-0.685,0.837-1.122
		c0.203-0.439,0.318-0.926,0.35-1.461c0.047-0.826-0.176-1.442-0.667-1.849c-0.491-0.407-1.234-0.61-2.225-0.61H238.403z"/>
	<path clip-path="url(#SVGID_2_)" fill="#585858" d="M252.71,16.808c-0.074,0.11-0.162,0.164-0.258,0.164
		c-0.075,0-0.163-0.06-0.265-0.183c-0.102-0.124-0.241-0.256-0.42-0.402c-0.182-0.144-0.415-0.278-0.703-0.4
		c-0.289-0.125-0.656-0.185-1.101-0.185c-0.483,0-0.918,0.08-1.304,0.237c-0.388,0.158-0.722,0.375-1,0.647
		c-0.281,0.276-0.501,0.596-0.661,0.958c-0.159,0.366-0.252,0.754-0.276,1.167c-0.021,0.393,0.038,0.723,0.183,0.992
		c0.143,0.268,0.339,0.497,0.586,0.688c0.246,0.188,0.53,0.354,0.849,0.493c0.321,0.139,0.649,0.273,0.988,0.405
		c0.34,0.133,0.668,0.277,0.985,0.436c0.317,0.157,0.601,0.35,0.844,0.575c0.245,0.228,0.438,0.501,0.578,0.823
		c0.141,0.323,0.197,0.719,0.172,1.19c-0.035,0.618-0.176,1.207-0.416,1.766c-0.241,0.558-0.569,1.045-0.983,1.462
		c-0.414,0.416-0.908,0.746-1.48,0.991c-0.574,0.245-1.208,0.367-1.9,0.367c-0.812,0-1.49-0.159-2.034-0.479
		c-0.54-0.318-0.985-0.756-1.335-1.311l0.339-0.416c0.094-0.09,0.186-0.135,0.274-0.135c0.058,0,0.12,0.039,0.188,0.115
		c0.069,0.078,0.152,0.173,0.25,0.286c0.1,0.112,0.217,0.235,0.353,0.367c0.136,0.133,0.3,0.255,0.498,0.368
		c0.195,0.111,0.427,0.208,0.695,0.285c0.265,0.078,0.576,0.115,0.931,0.115c0.534,0,1.023-0.091,1.466-0.274
		c0.441-0.185,0.825-0.437,1.149-0.761c0.323-0.323,0.578-0.7,0.767-1.136c0.186-0.435,0.293-0.905,0.322-1.409
		c0.021-0.399-0.039-0.731-0.182-1.001c-0.145-0.268-0.339-0.494-0.586-0.682c-0.247-0.187-0.531-0.346-0.852-0.475
		s-0.648-0.258-0.983-0.388c-0.337-0.129-0.665-0.27-0.986-0.424c-0.322-0.155-0.604-0.348-0.848-0.576
		c-0.245-0.229-0.437-0.511-0.573-0.843c-0.138-0.331-0.19-0.74-0.164-1.224c0.029-0.522,0.151-1.026,0.361-1.51
		c0.213-0.484,0.503-0.911,0.869-1.281c0.368-0.373,0.809-0.667,1.323-0.887c0.515-0.218,1.094-0.327,1.734-0.327
		c0.649,0,1.211,0.121,1.687,0.362c0.476,0.242,0.879,0.596,1.209,1.06L252.71,16.808z"/>
	<path clip-path="url(#SVGID_2_)" fill="#FF8900" d="M247.129,4.432c-0.042-0.121-0.082-0.251-0.122-0.392
		c-0.039,0.141-0.078,0.272-0.114,0.393c-0.04,0.123-0.077,0.229-0.113,0.32l-0.743,1.989h1.946l-0.743-1.997
		C247.207,4.656,247.168,4.552,247.129,4.432 M233.143,6.603c-0.091-0.073-0.208-0.129-0.347-0.168
		c-0.141-0.038-0.312-0.058-0.511-0.058h-1.149v1.759h1.152c0.211,0,0.389-0.025,0.529-0.075c0.144-0.05,0.257-0.116,0.344-0.199
		c0.086-0.083,0.146-0.18,0.185-0.291c0.04-0.11,0.058-0.228,0.058-0.352c0-0.13-0.021-0.248-0.062-0.352
		C233.298,6.766,233.232,6.675,233.143,6.603 M251.001,1h-23.002C226.896,1,226,1.896,226,3v6c0,1.104,0.896,2,1.999,2h23.002
		c1.103,0,1.999-0.896,1.999-2V3C253,1.896,252.104,1,251.001,1 M234.379,7.95c-0.098,0.216-0.242,0.402-0.429,0.559
		c-0.189,0.157-0.422,0.279-0.699,0.367c-0.276,0.088-0.59,0.134-0.944,0.134h-2.308V3.006h2.106c0.4,0,0.743,0.037,1.026,0.111
		c0.283,0.076,0.515,0.182,0.696,0.32c0.183,0.137,0.314,0.305,0.401,0.503c0.083,0.196,0.126,0.417,0.126,0.664
		c0,0.141-0.022,0.275-0.064,0.404c-0.042,0.129-0.106,0.25-0.196,0.362c-0.089,0.112-0.2,0.214-0.338,0.305
		c-0.137,0.091-0.299,0.168-0.488,0.232c0.839,0.186,1.259,0.631,1.259,1.336C234.527,7.498,234.479,7.733,234.379,7.95
		 M239.32,3.894h-2.709v1.665h2.132v0.859h-2.132v1.699h2.709v0.893h-3.854V3.006h3.854V3.894z M242.799,9.009h-1.138V3.923h-1.847
		V3.006h4.82v0.917h-1.836V9.009z M249.11,9.009c-0.098,0-0.179-0.025-0.242-0.073c-0.063-0.049-0.109-0.109-0.139-0.181
		l-0.454-1.226h-2.532l-0.456,1.226c-0.022,0.064-0.065,0.121-0.133,0.174c-0.064,0.052-0.146,0.08-0.242,0.08h-0.884l2.4-6.003
		h1.162l2.399,6.003H249.11z M232.923,5.396c0.199-0.137,0.299-0.358,0.299-0.66c0-0.312-0.09-0.535-0.27-0.669
		c-0.18-0.132-0.462-0.199-0.847-0.199h-0.97v1.736h0.908C232.429,5.604,232.722,5.536,232.923,5.396"/>
</g>
</svg>
