<?xml version="1.0" encoding="UTF-8" standalone="no"?>
<!-- Created with Inkscape (http://www.inkscape.org/) -->

<svg
   xmlns:dc="http://purl.org/dc/elements/1.1/"
   xmlns:cc="http://creativecommons.org/ns#"
   xmlns:rdf="http://www.w3.org/1999/02/22-rdf-syntax-ns#"
   xmlns:svg="http://www.w3.org/2000/svg"
   xmlns="http://www.w3.org/2000/svg"
   xmlns:xlink="http://www.w3.org/1999/xlink"
   xmlns:sodipodi="http://sodipodi.sourceforge.net/DTD/sodipodi-0.dtd"
   xmlns:inkscape="http://www.inkscape.org/namespaces/inkscape"
   width="249.38239"
   height="242.2068"
   id="svg2"
   version="1.1"
   inkscape:version="0.91 r13725"
   sodipodi:docname="logo_ringcentral_webrtc_inside_vert.svg"
   inkscape:export-filename="/usr/local/google/home/louquillio/working/webrtc-site/assets/images/webrtc-logo-vert-retro-255x305.png"
   inkscape:export-xdpi="90"
   inkscape:export-ydpi="90">
  <defs
     id="defs4" />
  <sodipodi:namedview
     id="base"
     pagecolor="#ffffff"
     bordercolor="#666666"
     borderopacity="1.0"
     inkscape:pageopacity="0"
     inkscape:pageshadow="2"
     inkscape:zoom="1"
     inkscape:cx="-183.76195"
     inkscape:cy="159.21691"
     inkscape:document-units="px"
     inkscape:current-layer="layer1"
     showgrid="false"
     fit-margin-top="5"
     fit-margin-left="5"
     fit-margin-right="5"
     fit-margin-bottom="5"
     inkscape:window-width="1300"
     inkscape:window-height="791"
     inkscape:window-x="30"
     inkscape:window-y="14"
     inkscape:window-maximized="0" />
  <metadata
     id="metadata7">
    <rdf:RDF>
      <cc:Work
         rdf:about="">
        <dc:format>image/svg+xml</dc:format>
        <dc:type
           rdf:resource="http://purl.org/dc/dcmitype/StillImage" />
        <dc:title />
      </cc:Work>
    </rdf:RDF>
  </metadata>
  <g
     inkscape:label="Layer 1"
     inkscape:groupmode="layer"
     id="layer1"
     transform="translate(-125.37886,-396.63463)">
    <g
       id="g3502"
       transform="translate(0,61)">
      <g
         transform="matrix(3.9482691,0,0,-3.9482691,263.23496,518.97915)"
         id="g376">
        <path
           inkscape:connector-curvature="0"
           id="path378"
           style="fill:#ff6600;fill-opacity:1;fill-rule:nonzero;stroke:none"
           d="m 0,0 c 0,-7.534 -6.107,-13.642 -13.641,-13.642 -7.535,0 -13.642,6.108 -13.642,13.642 0,7.534 6.107,13.642 13.642,13.642 C -6.107,13.642 0,7.534 0,0" />
      </g>
      <g
         transform="matrix(3.9482691,0,0,-3.9482691,369.76125,443.57273)"
         id="g404">
        <path
           inkscape:connector-curvature="0"
           id="path406"
           style="fill:#ffcc00;fill-opacity:1;fill-rule:nonzero;stroke:none"
           d="m 0,0 c 0,-7.533 -6.107,-13.642 -13.641,-13.642 -7.535,0 -13.642,6.109 -13.642,13.642 0,7.534 6.107,13.643 13.642,13.643 C -6.107,13.643 0,7.534 0,0" />
      </g>
      <g
         transform="matrix(3.9482691,0,0,-3.9482691,238.09949,442.37758)"
         id="g408">
        <path
           inkscape:connector-curvature="0"
           id="path410"
           style="fill:#0089cc;fill-opacity:1;fill-rule:nonzero;stroke:none"
           d="m 0,0 c 0,-7.533 -6.107,-13.642 -13.642,-13.642 -7.533,0 -13.641,6.109 -13.641,13.642 0,7.534 6.108,13.643 13.641,13.643 C -6.107,13.643 0,7.534 0,0" />
      </g>
      <g
         transform="matrix(3.9482691,0,0,-3.9482691,345.82485,518.97915)"
         id="g412">
        <path
           inkscape:connector-curvature="0"
           id="path414"
           style="fill:#009939;fill-opacity:1;fill-rule:nonzero;stroke:none"
           d="m 0,0 c 0,-7.534 -6.107,-13.642 -13.643,-13.642 -7.533,0 -13.641,6.108 -13.641,13.642 0,7.534 6.108,13.642 13.641,13.642 C -6.107,13.642 0,7.534 0,0" />
      </g>
      <g
         transform="matrix(3.9482691,0,0,-3.9482691,303.93214,394.49692)"
         id="g416">
        <path
           inkscape:connector-curvature="0"
           id="path418"
           style="fill:#bf0000;fill-opacity:1;fill-rule:nonzero;stroke:none"
           d="m 0,0 c 0,-7.534 -6.108,-13.642 -13.642,-13.642 -7.534,0 -13.642,6.108 -13.642,13.642 0,7.534 6.108,13.642 13.642,13.642 C -6.108,13.642 0,7.534 0,0" />
      </g>
      <g
         transform="matrix(3.9482691,0,0,-3.9482691,262.03983,443.57273)"
         id="g420">
        <path
           inkscape:connector-curvature="0"
           id="path422"
           style="fill:#fc0007;fill-opacity:1;fill-rule:nonzero;stroke:none"
           d="M 0,0 C 0,-0.287 0.025,-0.568 0.043,-0.851 6.094,0.545 10.61,5.955 10.61,12.43 c 0,0.287 -0.025,0.569 -0.043,0.852 C 4.516,11.885 0,6.475 0,0" />
      </g>
      <g
         transform="matrix(3.9482691,0,0,-3.9482691,269.1459,470.24289)"
         id="g424">
        <path
           inkscape:connector-curvature="0"
           id="path426"
           style="fill:#1cd306;fill-opacity:1;fill-rule:nonzero;stroke:none"
           d="m 0,0 c 2.351,-4.11 6.769,-6.887 11.843,-6.887 2.068,0 4.021,0.474 5.778,1.298 -2.35,4.11 -6.768,6.887 -11.843,6.887 C 3.71,1.298 1.757,0.824 0,0" />
      </g>
      <g
         transform="matrix(3.9482691,0,0,-3.9482691,238.09949,518.97915)"
         id="g428">
        <path
           inkscape:connector-curvature="0"
           id="path430"
           style="fill:#0f7504;fill-opacity:1;fill-rule:nonzero;stroke:none"
           d="M 0,0 C 0,-3.333 1.198,-6.383 3.184,-8.752 5.168,-6.383 6.366,-3.333 6.366,0 6.366,3.333 5.168,6.383 3.184,8.752 1.198,6.383 0,3.333 0,0" />
      </g>
      <g
         transform="matrix(3.9482691,0,0,-3.9482691,162.9126,491.82927)"
         id="g432">
        <path
           inkscape:connector-curvature="0"
           id="path434"
           style="fill:#0c5e87;fill-opacity:1;fill-rule:nonzero;stroke:none"
           d="m 0,0 c 1.657,-0.716 3.481,-1.117 5.401,-1.117 5.024,0 9.401,2.723 11.769,6.766 C 15.513,6.365 13.688,6.765 11.769,6.765 6.745,6.765 2.367,4.042 0,0" />
      </g>
      <g
         transform="matrix(3.9482691,0,0,-3.9482691,196.43855,389.95287)"
         id="g436">
        <path
           inkscape:connector-curvature="0"
           id="path438"
           style="fill:#6b0001;fill-opacity:1;fill-rule:nonzero;stroke:none"
           d="m 0,0 c -0.032,-0.38 -0.059,-0.762 -0.059,-1.151 0,-6.47 4.509,-11.875 10.553,-13.277 0.031,0.38 0.058,0.762 0.058,1.15 C 10.552,-6.808 6.044,-1.401 0,0" />
      </g>
      <g
         transform="matrix(3.9482691,0,0,-3.9482691,201.46628,512.31444)"
         id="g482">
        <path
           inkscape:connector-curvature="0"
           id="path484"
           style="fill:#ffffff;fill-opacity:1;fill-rule:nonzero;stroke:none"
           d="M 0,0 -2.134,0 C -4.018,0 -5.55,1.527 -5.55,3.406 l 0,19.316 c 0,1.879 1.532,3.407 3.416,3.407 l 26.759,0 c 1.884,0 3.415,-1.528 3.415,-3.407 l 0,-19.316 C 28.04,1.527 26.509,0 24.625,0 L 15.509,0 -2.781,-8.966 0,0 Z" />
      </g>
    </g>
    <g
       transform="matrix(0.77098222,0,0,0.81907575,187.02042,485.86838)"
       id="g3">
      <defs
         id="defs5">
        <rect
           x="0"
           height="32.536999"
           width="253"
           y="0.73100001"
           id="SVGID_1_" />
      </defs>
      <clipPath
         id="SVGID_2_">
        <use
           height="100%"
           width="100%"
           y="0"
           x="0"
           style="overflow:visible"
           id="use9"
           overflow="visible"
           xlink:href="#SVGID_1_" />
      </clipPath>
      <path
         style="clip-rule:evenodd;fill:#0072b3;fill-rule:evenodd"
         inkscape:connector-curvature="0"
         id="path11"
         d="m 17.864,19.236 c 0.641,-0.797 1.053,-1.704 1.238,-2.722 0.088,-0.459 0.131,-0.863 0.131,-1.208 0,-0.656 -0.133,-1.223 -0.398,-1.698 -0.264,-0.478 -0.688,-0.875 -1.276,-1.194 -0.587,-0.319 -1.345,-0.559 -2.273,-0.715 -0.927,-0.154 -2.065,-0.232 -3.409,-0.232 l -8.684,0 -3.193,17.73 6.027,0 1.099,-6.182 1.839,0 c 1.072,0 1.809,0.129 2.21,0.381 0.398,0.258 0.6,0.695 0.6,1.319 0,0.378 -0.052,0.835 -0.154,1.379 -0.101,0.541 -0.175,1.032 -0.216,1.465 -0.043,0.438 -0.065,0.792 -0.065,1.073 0,0.213 0.018,0.4 0.052,0.564 l 6.104,0 0.076,-0.539 c -0.305,0 -0.458,-0.199 -0.458,-0.592 0,-0.23 0.033,-0.551 0.102,-0.963 0.069,-0.407 0.163,-0.927 0.281,-1.553 0.12,-0.672 0.18,-1.26 0.18,-1.771 0,-0.491 -0.06,-0.893 -0.18,-1.205 -0.118,-0.313 -0.284,-0.575 -0.496,-0.79 -0.213,-0.213 -0.469,-0.389 -0.769,-0.529 -0.296,-0.139 -0.634,-0.274 -1.007,-0.407 1.121,-0.278 2.002,-0.815 2.639,-1.611 M 13.358,17.45 c -0.101,0.625 -0.417,1.059 -0.946,1.305 -0.529,0.247 -1.259,0.37 -2.196,0.37 l -2.375,0 0.612,-3.521 2.809,0 c 0.631,0 1.143,0.118 1.534,0.355 0.392,0.24 0.586,0.613 0.586,1.12 0,0.168 -0.007,0.289 -0.024,0.371 m 28.127,2.414 c 0,-1.28 -0.349,-2.26 -1.048,-2.932 -0.697,-0.672 -1.796,-1.009 -3.293,-1.009 -1.022,0 -1.915,0.201 -2.683,0.603 -0.765,0.405 -1.524,0.998 -2.272,1.785 l 0.358,-2.019 -4.854,0 -2.299,12.904 5.312,0 1.176,-6.575 c 0.133,-0.838 0.391,-1.49 0.765,-1.959 0.373,-0.468 0.972,-0.702 1.788,-0.702 0.578,0 0.975,0.147 1.187,0.446 0.213,0.293 0.322,0.663 0.322,1.108 0,0.279 -0.029,0.565 -0.078,0.86 l -1.227,6.821 5.313,0 1.38,-7.732 c 0.102,-0.558 0.153,-1.09 0.153,-1.599 m 11.408,-3.885 -0.281,1.687 C 52.237,17.048 51.73,16.547 51.09,16.172 50.454,15.8 49.726,15.611 48.906,15.611 c -1.107,0 -2.071,0.192 -2.897,0.577 -0.827,0.388 -1.533,0.887 -2.12,1.503 -0.587,0.616 -1.058,1.319 -1.405,2.106 -0.35,0.789 -0.591,1.575 -0.728,2.365 -0.036,0.229 -0.064,0.451 -0.088,0.665 -0.025,0.213 -0.039,0.427 -0.039,0.638 0,0.677 0.102,1.307 0.305,1.897 0.205,0.592 0.513,1.102 0.92,1.528 0.409,0.427 0.916,0.763 1.519,1.009 0.604,0.244 1.309,0.369 2.108,0.369 0.971,0 1.784,-0.14 2.439,-0.419 0.657,-0.279 1.204,-0.61 1.647,-0.985 l -0.204,1.058 c -0.172,0.924 -0.453,1.571 -0.843,1.948 -0.394,0.377 -0.972,0.565 -1.737,0.565 -0.546,0 -0.913,-0.106 -1.099,-0.32 -0.152,-0.148 -0.23,-0.312 -0.23,-0.492 l 0,-0.073 -5.338,0 0,0.17 c 0,0.462 0.116,0.905 0.346,1.33 0.229,0.431 0.59,0.807 1.084,1.136 0.494,0.327 1.142,0.589 1.941,0.787 0.802,0.197 1.78,0.296 2.938,0.296 1.651,0 2.98,-0.178 3.986,-0.528 1.004,-0.355 1.794,-0.843 2.374,-1.468 0.579,-0.624 1,-1.354 1.265,-2.192 0.262,-0.837 0.479,-1.741 0.652,-2.707 l 1.864,-10.395 -4.673,0 z m -1.456,6.072 c -0.067,0.347 -0.172,0.681 -0.307,1.001 -0.137,0.323 -0.312,0.606 -0.524,0.855 -0.213,0.246 -0.468,0.445 -0.766,0.591 -0.299,0.148 -0.633,0.226 -1.008,0.226 l -0.127,0 c -0.598,-0.017 -1.027,-0.21 -1.292,-0.582 -0.263,-0.373 -0.394,-0.812 -0.394,-1.326 0,-0.097 0.003,-0.196 0.012,-0.297 0.009,-0.096 0.022,-0.204 0.04,-0.321 0.065,-0.41 0.166,-0.798 0.292,-1.161 0.127,-0.363 0.293,-0.677 0.498,-0.939 0.205,-0.264 0.453,-0.472 0.742,-0.62 0.289,-0.148 0.63,-0.223 1.021,-0.223 l 0.052,0 c 0.681,0 1.157,0.195 1.429,0.583 0.272,0.386 0.412,0.853 0.412,1.396 -0.003,0.28 -0.031,0.553 -0.08,0.817 m -32.947,7.146 5.288,0 1.553,-10.474 -3.849,0 -2.992,10.474 z"
         clip-path="url(#SVGID_2_)" />
      <path
         style="fill:#ff8900"
         inkscape:connector-curvature="0"
         id="path13"
         d="m 67.516,11.319 c -1.207,0 -2.378,0.204 -3.514,0.614 -1.134,0.413 -2.161,0.999 -3.078,1.761 -0.918,0.761 -1.698,1.683 -2.344,2.77 -0.645,1.09 -1.086,2.309 -1.328,3.657 -0.066,0.357 -0.114,0.702 -0.144,1.035 -0.034,0.334 -0.048,0.658 -0.048,0.966 0,1.075 0.171,2.03 0.518,2.878 0.345,0.845 0.853,1.563 1.521,2.153 0.668,0.589 1.484,1.039 2.451,1.351 0.967,0.312 2.077,0.465 3.333,0.465 1.144,0 2.226,-0.157 3.249,-0.476 1.022,-0.318 1.947,-0.776 2.777,-1.374 0.829,-0.596 1.547,-1.323 2.148,-2.176 0.605,-0.855 1.066,-1.826 1.39,-2.913 l -5.481,0 c -0.257,0.811 -0.664,1.483 -1.219,2.026 -0.557,0.544 -1.293,0.814 -2.211,0.814 -0.546,0 -0.998,-0.071 -1.353,-0.222 -0.353,-0.146 -0.64,-0.349 -0.855,-0.605 -0.218,-0.256 -0.373,-0.556 -0.459,-0.896 -0.089,-0.341 -0.132,-0.713 -0.132,-1.118 0,-0.265 0.014,-0.54 0.047,-0.828 0.032,-0.284 0.08,-0.584 0.144,-0.897 0.289,-1.626 0.79,-2.849 1.499,-3.666 0.706,-0.815 1.568,-1.222 2.584,-1.222 0.836,0 1.484,0.21 1.942,0.629 0.459,0.418 0.69,1.016 0.69,1.794 0,0.061 -0.005,0.117 -0.014,0.159 -0.008,0.05 -0.013,0.104 -0.013,0.166 l 5.41,0 c 0.016,-0.125 0.024,-0.24 0.024,-0.351 l 0,-0.349 c 0,-1.954 -0.625,-3.47 -1.87,-4.541 -1.247,-1.069 -3.135,-1.604 -5.664,-1.604 M 83.981,25.56 c -0.39,0.188 -0.801,0.281 -1.226,0.281 -0.629,0 -1.157,-0.182 -1.584,-0.553 -0.425,-0.368 -0.637,-0.864 -0.637,-1.489 0,-0.083 0.003,-0.166 0.012,-0.248 0.008,-0.081 0.021,-0.163 0.037,-0.244 l 10.141,0 c 0.135,-0.707 0.204,-1.339 0.204,-1.897 0,-0.902 -0.145,-1.733 -0.435,-2.486 -0.288,-0.756 -0.715,-1.396 -1.276,-1.923 -0.561,-0.525 -1.258,-0.936 -2.082,-1.23 -0.827,-0.296 -1.777,-0.442 -2.85,-0.442 -1.072,0 -2.097,0.162 -3.077,0.49 -0.979,0.33 -1.864,0.793 -2.656,1.394 -0.792,0.599 -1.46,1.33 -2.003,2.191 -0.546,0.86 -0.911,1.819 -1.099,2.868 -0.035,0.231 -0.066,0.454 -0.089,0.676 -0.025,0.222 -0.039,0.441 -0.039,0.655 0,0.87 0.162,1.636 0.486,2.301 0.322,0.667 0.773,1.23 1.354,1.688 0.577,0.46 1.268,0.807 2.068,1.034 0.8,0.231 1.677,0.345 2.63,0.345 0.785,0 1.578,-0.067 2.388,-0.207 0.808,-0.14 1.579,-0.379 2.311,-0.713 0.733,-0.34 1.399,-0.778 2.007,-1.318 0.604,-0.545 1.092,-1.217 1.467,-2.021 l -5.083,0 c -0.255,0.378 -0.577,0.658 -0.969,0.848 m -1.992,-6.504 c 0.495,-0.4 1.141,-0.602 1.94,-0.602 0.563,0 1.032,0.182 1.407,0.541 0.372,0.361 0.561,0.805 0.561,1.331 0,0.163 -0.009,0.285 -0.025,0.369 l -4.827,0 c 0.135,-0.69 0.451,-1.234 0.944,-1.639 m 20.109,-3.361 c -1.02,0 -1.914,0.201 -2.68,0.603 -0.766,0.405 -1.524,0.998 -2.274,1.786 l 0.358,-2.02 -4.852,0 -2.299,12.904 5.312,0 1.174,-6.575 c 0.137,-0.837 0.393,-1.49 0.765,-1.959 0.376,-0.468 0.975,-0.7 1.791,-0.7 0.577,0 0.973,0.147 1.186,0.444 0.213,0.294 0.32,0.664 0.32,1.108 0,0.278 -0.025,0.565 -0.077,0.86 l -1.227,6.821 5.314,0 1.377,-7.732 c 0.102,-0.56 0.155,-1.092 0.155,-1.601 0,-1.28 -0.349,-2.26 -1.048,-2.932 -0.698,-0.671 -1.795,-1.007 -3.295,-1.007 m 11.279,9.335 c -0.203,-0.134 -0.307,-0.356 -0.307,-0.67 0,-0.098 0.008,-0.209 0.026,-0.334 0.017,-0.123 0.042,-0.254 0.078,-0.402 l 0.84,-4.699 2.554,0 0.513,-2.958 -2.553,0 0.74,-4.016 -5.234,0 -0.742,4.016 -1.967,0 -0.511,2.958 1.891,0 -0.972,5.39 c -0.086,0.442 -0.148,0.852 -0.191,1.22 -0.042,0.371 -0.065,0.704 -0.065,0.999 0,0.475 0.069,0.872 0.204,1.181 0.138,0.311 0.366,0.564 0.69,0.751 0.325,0.189 0.758,0.322 1.305,0.396 0.543,0.071 1.216,0.108 2.017,0.108 0.425,0 0.89,-0.005 1.391,-0.022 0.502,-0.016 1.052,-0.043 1.649,-0.075 l 0.636,-3.646 -0.841,0 c -0.562,-0.001 -0.945,-0.065 -1.151,-0.197 m 13.088,-4.237 c 0.178,0.032 0.353,0.066 0.523,0.1 l 0.947,-5.123 c -0.121,-0.015 -0.237,-0.034 -0.346,-0.05 -0.113,-0.016 -0.227,-0.024 -0.346,-0.024 -2.029,0 -3.576,0.993 -4.648,2.98 l -0.053,0 0.462,-2.611 -4.83,0 -2.298,12.904 5.313,0 0.791,-4.457 c 0.256,-1.394 0.703,-2.371 1.341,-2.931 0.641,-0.558 1.502,-0.837 2.592,-0.837 0.189,0 0.374,0.019 0.552,0.049 m 14.729,-3.497 c -0.17,-0.41 -0.478,-0.764 -0.92,-1.058 -0.443,-0.296 -1.052,-0.522 -1.829,-0.677 -0.77,-0.156 -1.765,-0.234 -2.973,-0.234 -1.326,0 -2.471,0.096 -3.423,0.295 -0.954,0.195 -1.757,0.479 -2.414,0.85 -0.652,0.366 -1.161,0.821 -1.519,1.354 -0.359,0.533 -0.596,1.144 -0.716,1.836 l 5.107,0 c 0.07,-0.28 0.185,-0.501 0.346,-0.667 0.163,-0.162 0.335,-0.29 0.523,-0.382 0.188,-0.09 0.388,-0.147 0.601,-0.173 0.213,-0.023 0.412,-0.037 0.6,-0.037 0.118,0 0.272,0.014 0.46,0.037 0.189,0.025 0.361,0.065 0.522,0.122 0.161,0.059 0.303,0.146 0.423,0.262 0.117,0.114 0.179,0.269 0.179,0.468 0,0.031 -0.005,0.061 -0.012,0.085 -0.01,0.025 -0.014,0.054 -0.014,0.086 -0.067,0.409 -0.355,0.692 -0.857,0.851 -0.497,0.157 -1.114,0.276 -1.839,0.368 -0.722,0.091 -1.506,0.188 -2.347,0.295 -0.844,0.108 -1.647,0.3 -2.401,0.582 -0.757,0.278 -1.423,0.691 -1.994,1.24 -0.569,0.553 -0.94,1.31 -1.109,2.28 -0.053,0.278 -0.077,0.534 -0.077,0.762 0,0.543 0.11,1.009 0.331,1.393 0.222,0.389 0.518,0.712 0.895,0.973 0.376,0.266 0.819,0.458 1.33,0.581 0.508,0.121 1.046,0.182 1.606,0.182 1.006,0 1.931,-0.12 2.771,-0.356 0.846,-0.237 1.702,-0.703 2.568,-1.39 l 0.031,1.775 5.492,0 0.02,-0.644 c -0.187,-0.181 -0.315,-0.342 -0.385,-0.481 -0.067,-0.139 -0.101,-0.298 -0.101,-0.481 0,-0.179 0.026,-0.408 0.075,-0.687 l 1.074,-6.034 c 0.067,-0.362 0.122,-0.708 0.166,-1.037 0.043,-0.325 0.063,-0.647 0.063,-0.956 0.002,-0.512 -0.083,-0.973 -0.253,-1.383 m -5.951,6.834 c -0.139,0.386 -0.321,0.723 -0.562,1.009 -0.236,0.291 -0.531,0.516 -0.879,0.68 -0.35,0.165 -0.757,0.243 -1.214,0.243 -0.495,0 -0.866,-0.082 -1.111,-0.256 -0.25,-0.172 -0.371,-0.396 -0.371,-0.678 l 0,-0.148 c 0.067,-0.413 0.249,-0.715 0.549,-0.91 0.297,-0.198 0.657,-0.349 1.073,-0.457 0.416,-0.106 0.868,-0.206 1.354,-0.295 0.484,-0.092 0.966,-0.236 1.442,-0.433 -0.051,0.445 -0.144,0.859 -0.281,1.245 m 6.206,4.839 5.315,0 3.19,-17.73 -5.313,0 -3.192,17.73 z M 27.983,13.274 c -0.04,-0.098 -0.892,-1.605 -3.323,-2.022 -0.597,-0.104 -1.133,-0.113 -1.604,-0.064 -1.529,0.154 -2.331,0.901 -2.391,0.96 -0.246,0.234 -0.246,0.618 0,0.854 0.244,0.237 0.642,0.238 0.885,0.002 0,0 0.009,-0.011 0.07,-0.054 0.186,-0.14 0.709,-0.473 1.566,-0.559 0.356,-0.036 0.77,-0.031 1.251,0.053 0.978,0.172 1.583,0.538 1.954,0.85 0.184,0.158 0.31,0.3 0.386,0.399 0.037,0.049 0.062,0.089 0.075,0.109 0.012,0.018 0.011,0.018 0.012,0.018 0.12,0.233 0.375,0.354 0.625,0.33 0.075,-0.008 0.147,-0.028 0.217,-0.061 0.311,-0.152 0.436,-0.517 0.277,-0.815 z m -3.833,0.189 0,0 c -0.365,-0.062 -0.7,-0.069 -0.992,-0.04 -0.957,0.098 -1.463,0.565 -1.514,0.615 -0.205,0.198 -0.205,0.518 0,0.713 0.205,0.199 0.537,0.197 0.741,0 0,0 -0.001,-10e-4 0.026,-0.022 0.096,-0.07 0.379,-0.254 0.856,-0.303 0.196,-0.019 0.427,-0.017 0.7,0.03 0.554,0.1 0.89,0.304 1.088,0.473 0.104,0.086 0.168,0.164 0.209,0.215 0.038,0.051 0.033,0.057 0.038,0.055 0.099,0.192 0.311,0.296 0.521,0.274 0.062,-0.005 0.123,-0.023 0.182,-0.052 0.258,-0.124 0.362,-0.429 0.233,-0.676 -0.033,-0.082 -0.58,-1.022 -2.088,-1.282 m -0.647,1.841 c -0.751,-10e-4 -1.362,0.499 -1.363,1.122 -0.003,0.616 0.601,1.124 1.354,1.127 0.75,0.003 1.358,-0.496 1.364,-1.117 0.003,-0.619 -0.604,-1.127 -1.355,-1.132 m 133.451,-2.106 c -0.158,-0.35 -0.373,-0.651 -0.642,-0.907 -0.272,-0.255 -0.587,-0.456 -0.947,-0.603 -0.361,-0.145 -0.746,-0.218 -1.155,-0.218 -0.408,0 -0.793,0.073 -1.158,0.218 -0.362,0.146 -0.681,0.348 -0.954,0.603 -0.273,0.256 -0.489,0.558 -0.647,0.907 -0.16,0.347 -0.239,0.722 -0.239,1.127 0,0.415 0.079,0.796 0.239,1.146 0.158,0.351 0.374,0.654 0.647,0.913 0.273,0.258 0.592,0.458 0.954,0.601 0.365,0.145 0.75,0.217 1.158,0.217 0.409,0 0.794,-0.072 1.155,-0.217 0.36,-0.143 0.675,-0.343 0.947,-0.601 0.269,-0.259 0.483,-0.562 0.642,-0.913 0.16,-0.351 0.239,-0.731 0.239,-1.146 0,-0.405 -0.079,-0.78 -0.239,-1.127 m -0.489,2.105 c -0.125,0.298 -0.296,0.559 -0.518,0.778 -0.218,0.221 -0.478,0.393 -0.774,0.518 -0.296,0.126 -0.618,0.189 -0.963,0.189 -0.35,0 -0.675,-0.063 -0.974,-0.189 -0.3,-0.125 -0.561,-0.297 -0.78,-0.518 -0.222,-0.22 -0.394,-0.48 -0.516,-0.778 -0.127,-0.3 -0.189,-0.626 -0.189,-0.978 0,-0.344 0.062,-0.663 0.189,-0.96 0.122,-0.297 0.294,-0.553 0.516,-0.771 0.22,-0.218 0.48,-0.389 0.78,-0.515 0.299,-0.125 0.624,-0.188 0.974,-0.188 0.345,0 0.667,0.062 0.963,0.188 0.297,0.126 0.557,0.297 0.774,0.515 0.222,0.218 0.393,0.474 0.518,0.771 0.126,0.297 0.188,0.616 0.188,0.96 0,0.352 -0.062,0.678 -0.188,0.978 m -1.117,-1.02 c 0.175,-0.142 0.263,-0.363 0.263,-0.665 0,-0.321 -0.1,-0.562 -0.299,-0.721 -0.199,-0.158 -0.505,-0.238 -0.918,-0.238 l -1.346,0 0,3.354 0.542,0 0,-1.443 0.572,0 0.947,1.442 0.581,0 -0.995,-1.482 c 0.261,-0.024 0.478,-0.106 0.653,-0.247 m -1.194,-0.135 -0.564,0 0,-1.066 0.715,0 c 0.092,0 0.183,0.006 0.277,0.02 0.091,0.012 0.173,0.036 0.245,0.072 0.07,0.035 0.131,0.087 0.176,0.153 0.042,0.066 0.067,0.155 0.067,0.268 0,0.133 -0.026,0.238 -0.078,0.312 -0.048,0.074 -0.115,0.129 -0.201,0.165 -0.086,0.035 -0.183,0.058 -0.29,0.065 -0.109,0.007 -0.226,0.011 -0.347,0.011"
         clip-path="url(#SVGID_2_)" />
    </g>
    <g
       style="font-style:normal;font-variant:normal;font-weight:bold;font-stretch:normal;font-size:60.31361389px;line-height:125%;font-family:'Arial Rounded MT Bold';-inkscape-font-specification:'Arial Rounded MT Bold, Bold';text-align:start;letter-spacing:0px;word-spacing:0px;writing-mode:lr-tb;text-anchor:start;fill:#333333;fill-opacity:1;stroke:none"
       id="text2996"
       transform="matrix(0.46101827,0,0,0.46244037,129.78319,256.38424)">
      <path
         d="m 161.86727,627.52383 -6.97965,-25.88656 -7.068,25.88656 q -0.8246,2.945 -1.32525,4.2408 -0.4712,1.26635 -1.67865,2.2971 -1.20745,1.0013 -3.21005,1.0013 -1.61975,0 -2.67995,-0.61845 -1.03075,-0.589 -1.67865,-1.67865 -0.6479,-1.1191 -1.0602,-2.62105 -0.4123,-1.5314 -0.73625,-2.8272 l -7.1858,-29.06716 q -0.6479,-2.5327 -0.6479,-3.85795 0,-1.67865 1.178,-2.8272 1.178,-1.14855 2.91555,-1.14855 2.38545,0 3.21005,1.5314 0.8246,1.5314 1.44305,4.44695 l 5.6544,25.20921 6.33175,-23.58946 q 0.7068,-2.7094 1.26635,-4.123 0.55955,-1.4136 1.8259,-2.44435 1.26635,-1.03075 3.44565,-1.03075 2.20875,0 3.4162,1.08965 1.2369,1.0602 1.7081,2.32655 0.4712,1.26635 1.26635,4.1819 l 6.39066,23.58946 5.6544,-25.20921 q 0.4123,-1.97315 0.7657,-3.09225 0.38285,-1.1191 1.26635,-2.0026 0.91295,-0.8835 2.62105,-0.8835 1.7081,0 2.8861,1.14855 1.20745,1.1191 1.20745,2.8272 0,1.20745 -0.6479,3.85795 l -7.1858,29.06716 q -0.73625,2.945 -1.2369,4.32915 -0.4712,1.3547 -1.6492,2.38545 -1.14855,1.03075 -3.26895,1.03075 -2.0026,0 -3.21005,-1.0013 -1.20746,-1.0013 -1.67866,-2.2382 -0.4712,-1.26635 -1.32525,-4.2997 z"
         id="path3441"
         inkscape:connector-curvature="0" />
      <path
         d="m 208.25103,620.69143 -15.7263,0 q 0.0294,2.73885 1.08965,4.8298 1.08965,2.09095 2.85665,3.15115 1.79645,1.0602 3.9463,1.0602 1.44305,0 2.62105,-0.32395 1.20745,-0.3534 2.32655,-1.0602 1.1191,-0.73625 2.0615,-1.56085 0.9424,-0.8246 2.44435,-2.2382 0.61845,-0.5301 1.767,-0.5301 1.2369,0 2.0026,0.67735 0.7657,0.67735 0.7657,1.91425 0,1.08965 -0.85405,2.56215 -0.85405,1.44305 -2.5916,2.79775 -1.7081,1.32525 -4.32915,2.20875 -2.5916,0.8835 -5.97835,0.8835 -7.74535,0 -12.04505,-4.4175 -4.2997,-4.4175 -4.2997,-11.98615 0,-3.56345 1.0602,-6.5968 1.0602,-3.0628 3.09225,-5.2421 2.03205,-2.1793 5.0065,-3.32785 2.97445,-1.17801 6.5968,-1.17801 4.712,0 8.0693,2.00261 3.38675,1.97315 5.0654,5.1243 1.67865,3.15115 1.67865,6.4201 0,3.03335 -1.73755,3.9463 -1.73755,0.8835 -4.8887,0.8835 z m -15.7263,-4.56475 14.57775,0 q -0.2945,-4.123 -2.2382,-6.15505 -1.91425,-2.0615 -5.0654,-2.0615 -3.0039,0 -4.9476,2.09095 -1.91425,2.0615 -2.32655,6.1256 z"
         id="path3443"
         inkscape:connector-curvature="0" />
      <path
         d="m 228.21814,595.01102 0,12.28066 q 2.26765,-2.356 4.62365,-3.5929 2.356,-1.26636 5.8311,-1.26636 4.0052,0 7.0091,1.91426 3.03335,1.8848 4.68255,5.50715 1.67866,3.5929 1.67866,8.5405 0,3.6518 -0.9424,6.7146 -0.91296,3.03335 -2.67996,5.27155 -1.767,2.2382 -4.2997,3.4751 -2.50325,1.20745 -5.5366,1.20745 -1.85535,0 -3.50455,-0.44175 -1.61975,-0.44175 -2.7683,-1.14855 -1.14855,-0.73625 -1.97315,-1.50195 -0.79515,-0.7657 -2.1204,-2.2971 l 0,0.79515 q 0,2.26765 -1.08965,3.44565 -1.08965,1.14855 -2.7683,1.14855 -1.7081,0 -2.73885,-1.14855 -1.0013,-1.178 -1.0013,-3.44565 l 0,-35.10441 q 0,-2.44435 0.97185,-3.68125 1.0013,-1.26635 2.7683,-1.26635 1.85535,0 2.85665,1.20745 1.0013,1.178 1.0013,3.38675 z m 0.38285,23.88396 q 0,4.80035 2.1793,7.39195 2.20875,2.56215 5.7722,2.56215 3.03335,0 5.21265,-2.62105 2.20875,-2.6505 2.20875,-7.56865 0,-3.1806 -0.91295,-5.4777 -0.91295,-2.2971 -2.5916,-3.534 -1.67865,-1.26635 -3.91685,-1.26635 -2.2971,0 -4.09355,1.26635 -1.79645,1.2369 -2.8272,3.62235 -1.03075,2.356 -1.03075,5.62495 z"
         id="path3445"
         inkscape:connector-curvature="0" />
      <path
         d="m 270.86175,615.86163 -3.0628,0 0,13.87095 q 0,2.73885 -1.20745,4.03465 -1.20745,1.2958 -3.15115,1.2958 -2.09095,0 -3.2395,-1.3547 -1.14855,-1.3547 -1.14855,-3.97575 l 0,-33.21961 q 0,-2.8272 1.26635,-4.09355 1.26635,-1.26635 4.09355,-1.26635 l 14.22436,0 q 2.945,0 5.03595,0.26505 2.09095,0.2356 3.7696,1.0013 2.03205,0.85405 3.5929,2.44435 1.56085,1.5903 2.356,3.7107 0.8246,2.09095 0.8246,4.44696 0,4.8298 -2.73885,7.7159 -2.7094,2.8861 -8.246,4.09355 2.32655,1.2369 4.44695,3.6518 2.1204,2.4149 3.7696,5.15375 1.67865,2.7094 2.5916,4.91815 0.9424,2.1793 0.9424,3.0039 0,0.85405 -0.55955,1.7081 -0.5301,0.8246 -1.4725,1.2958 -0.9424,0.50065 -2.1793,0.50065 -1.4725,0 -2.4738,-0.7068 -1.0013,-0.67735 -1.73755,-1.73755 -0.7068,-1.0602 -1.9437,-3.1217 l -3.50455,-5.8311 q -1.8848,-3.21005 -3.38675,-4.8887 -1.4725,-1.67865 -3.0039,-2.2971 -1.53141,-0.61845 -3.85796,-0.61845 z m 5.00651,-18.14121 -8.06931,0 0,11.86836 7.83371,0 q 3.15115,0 5.301,-0.5301 2.14985,-0.55955 3.26895,-1.85535 1.14855,-1.32525 1.14855,-3.62235 0,-1.79646 -0.91295,-3.15116 -0.91295,-1.38415 -2.5327,-2.0615 -1.5314,-0.6479 -6.03725,-0.6479 z"
         id="path3447"
         inkscape:connector-curvature="0" />
      <path
         d="m 327.61192,598.36832 -9.5418,0 0,31.36426 q 0,2.7094 -1.20745,4.03465 -1.20746,1.2958 -3.12171,1.2958 -1.9437,0 -3.1806,-1.32525 -1.20745,-1.32525 -1.20745,-4.0052 l 0,-31.36426 -9.5418,0 q -2.2382,0 -3.32785,-0.97185 -1.08965,-1.0013 -1.08965,-2.62105 0,-1.67865 1.1191,-2.6505 1.14855,-0.97185 3.2984,-0.97185 l 27.80081,0 q 2.26765,0 3.3573,1.0013 1.1191,1.0013 1.1191,2.62105 0,1.61975 -1.1191,2.62105 -1.1191,0.97185 -3.3573,0.97185 z"
         id="path3449"
         inkscape:connector-curvature="0" />
      <path
         d="m 372.52318,620.69143 q 0,2.0615 -1.03075,4.4764 -1.0013,2.38545 -3.1806,4.712 -2.1793,2.2971 -5.56605,3.74015 -3.38675,1.44305 -7.8926,1.44305 -3.4162,0 -6.21395,-0.6479 -2.79775,-0.6479 -5.09486,-2.0026 -2.26765,-1.38415 -4.1819,-3.62235 -1.7081,-2.03205 -2.91555,-4.5353 -1.20745,-2.5327 -1.8259,-5.38935 -0.589,-2.85665 -0.589,-6.0667 0,-5.21265 1.50195,-9.33565 1.5314,-4.12301 4.3586,-7.03856 2.8272,-2.945 6.62626,-4.4764 3.79905,-1.5314 8.09875,-1.5314 5.2421,0 9.33565,2.09095 4.09355,2.09095 6.27285,5.1832 2.1793,3.0628 2.1793,5.80166 0,1.50195 -1.0602,2.6505 -1.0602,1.14855 -2.56215,1.14855 -1.67865,0 -2.5327,-0.79515 -0.8246,-0.79515 -1.85535,-2.73885 -1.7081,-3.21006 -4.03465,-4.80036 -2.2971,-1.5903 -5.68385,-1.5903 -5.38935,0 -8.5994,4.09355 -3.18061,4.09356 -3.18061,11.63276 0,5.03595 1.41361,8.39325 1.4136,3.32785 4.0052,4.97705 2.5916,1.6492 6.0667,1.6492 3.7696,0 6.3612,-1.85535 2.62105,-1.8848 3.9463,-5.50715 0.55955,-1.7081 1.38415,-2.7683 0.8246,-1.08965 2.6505,-1.08965 1.56085,0 2.67995,1.08965 1.1191,1.08965 1.1191,2.7094 z"
         id="path3451"
         inkscape:connector-curvature="0" />
    </g>
  </g>
</svg>
